<?xml version="1.0" encoding="utf-8"?>
<svg width="50" height="50" version="1.1" viewBox="0 0 26.458 26.458" xmlns="http://www.w3.org/2000/svg" xmlns:bx="https://boxy-svg.com">
  <defs>
    <bx:export>
      <bx:file format="png" path="icon.png" width="128" height="128"/>
    </bx:export>
  </defs>
  <animateMotion path="M 0 0 L 28.65 0.017" calcMode="spline" dur="10s" fill="freeze" repeatCount="indefinite" keyTimes="0; 0.2" keyPoints="0; 1" keySplines="0.42 0 0.58 1"/>
  <path d="M 10.436 6.741 C 11.147 6.973 11.895 7.083 12.646 7.066 C 13.396 7.082 14.144 6.973 14.856 6.745 C 14.856 6.745 14.856 7.2 14.856 7.389 C 14.731 7.48 14.589 7.549 14.439 7.598 C 13.859 7.78 13.252 7.865 12.642 7.853 C 12.033 7.865 11.426 7.78 10.845 7.598 C 10.697 7.549 10.558 7.478 10.431 7.389 L 10.436 6.741 Z M 10.856 5.323 C 11.436 5.144 12.044 5.057 12.653 5.068 C 13.263 5.056 13.87 5.142 14.451 5.323 C 14.557 5.361 14.661 5.408 14.761 5.462 C 14.662 5.516 14.557 5.563 14.451 5.599 C 13.87 5.781 13.263 5.867 12.653 5.854 C 12.044 5.867 11.436 5.781 10.856 5.599 C 10.749 5.563 10.646 5.516 10.547 5.462 C 10.647 5.408 10.749 5.362 10.856 5.323 Z M 7.386 8.26 L 9.209 7.517 L 9.209 7.535 C 9.275 8.541 10.795 9.062 12.636 9.062 C 14.477 9.062 15.993 8.541 16.058 7.535 L 16.058 7.517 L 17.881 8.26 L 12.636 10.387 L 7.386 8.26 Z M 12.039 20.205 L 6.408 17.913 L 6.408 9.16 L 12.039 11.45 L 12.039 20.205 Z M 18.891 17.913 L 18.392 18.116 C 18.557 18.218 18.711 18.332 18.852 18.454 C 19.036 18.616 19.206 18.805 19.357 19.013 L 19.555 18.932 C 19.6 18.57 19.768 18.175 19.997 17.946 C 20.029 17.914 20.063 17.884 20.099 17.856 L 20.099 7.86 L 16.071 6.219 L 16.071 5.451 C 16.071 4.388 14.526 3.856 12.646 3.856 C 10.766 3.856 9.221 4.402 9.221 5.451 L 9.221 6.219 L 5.194 7.86 L 5.194 18.711 L 12.646 21.742 L 12.884 21.646 L 12.884 19.033 C 12.903 18.688 13.046 18.294 13.255 18.035 L 13.255 11.45 L 18.891 9.16 L 18.891 17.913 Z" style="stroke-width: 0.983; fill: rgb(68, 68, 68);"/>
  <path d="M 1.466 23.151 C 1.455 23.158 1.446 23.161 1.439 23.161 C 1.453 23.167 1.477 23.181 1.513 23.217 C 1.557 23.258 1.57 23.283 1.573 23.294 C 1.574 23.288 1.577 23.277 1.586 23.262 L 1.588 23.259 L 1.625 23.259 L 3.407 23.26 C 3.877 23.303 4.449 23.572 4.79 23.913 L 4.791 23.912 L 5.726 24.83 L 5.741 24.855 L 5.747 24.864 C 5.827 25.022 5.87 25.032 6.05 25.003 L 8.71 25.003 C 8.881 25.037 8.897 25.017 8.985 24.856 L 9.008 24.824 L 9.933 23.911 L 9.935 23.913 C 10.28 23.572 10.859 23.302 11.331 23.259 L 12.595 23.259 L 12.595 24.715 L 12.35 24.715 L 11.335 24.714 C 11.154 24.685 11.129 24.695 11.047 24.853 L 11.024 24.891 L 10.095 25.804 L 10.094 25.803 C 9.754 26.143 9.164 26.414 8.692 26.458 L 6.01 26.457 C 5.536 26.414 4.971 26.143 4.632 25.803 L 4.631 25.804 L 3.696 24.886 L 3.68 24.859 L 3.675 24.849 C 3.593 24.692 3.564 24.684 3.389 24.715 L 1.629 24.715 C 1.245 24.69 0.754 24.503 0.486 24.256 C 0.232 23.996 0.031 23.497 0 23.115 L 0 3.988 L 0.086 3.914 L 0.251 3.773 C 3.149 1.304 7.312 0 11.343 0 C 15.372 0 19.335 1.241 22.216 3.593 L 24.825 3.593 C 25.212 3.617 25.711 3.796 25.972 4.049 C 26.233 4.304 26.428 4.81 26.458 5.192 L 26.458 18.301 L 26.053 17.937 C 25.837 17.745 25.527 17.609 25.224 17.605 L 24.989 17.602 L 24.989 5.159 L 24.992 5.157 C 25.003 5.149 25.013 5.146 25.02 5.145 C 25.007 5.141 24.984 5.128 24.946 5.091 C 24.902 5.05 24.889 5.025 24.884 5.013 C 24.884 5.02 24.881 5.031 24.873 5.045 L 24.871 5.049 L 21.669 5.049 L 21.6 4.988 L 21.462 4.867 C 18.835 2.547 15.156 1.455 11.343 1.455 C 7.529 1.455 4.079 2.479 1.469 4.654 L 1.469 23.151 L 1.466 23.151 Z" style="stroke-width: 0.983; fill: rgb(68, 68, 68);"/>
  <path d="M 16.473 22.405 L 15.447 22.405 C 15.284 22.405 15.153 22.273 15.153 22.11 L 15.153 20.059 C 15.153 19.896 15.284 19.764 15.447 19.764 L 16.473 19.764 C 16.815 19.777 17.183 19.928 17.406 20.151 C 17.629 20.374 17.793 20.742 17.793 21.085 C 17.793 21.427 17.629 21.795 17.406 22.018 C 17.183 22.241 16.815 22.392 16.473 22.405 Z M 18.32 19.061 C 17.764 18.574 17.077 18.292 16.298 18.302 L 14.421 18.302 C 14.199 18.289 14.053 18.368 13.905 18.517 C 13.756 18.665 13.678 18.811 13.69 19.033 L 13.69 25.481 C 13.678 25.704 13.756 25.85 13.905 25.998 C 14.053 26.147 14.199 26.213 14.421 26.213 C 14.644 26.213 14.79 26.147 14.938 25.998 C 15.087 25.85 15.165 25.704 15.153 25.481 L 15.153 24.161 C 15.153 23.998 15.284 23.867 15.447 23.867 L 16.473 23.867 C 17.287 23.881 17.965 23.552 18.488 23.003 C 19.012 22.454 19.308 21.759 19.251 20.935 C 19.226 20.165 18.874 19.548 18.32 19.061 Z" style="fill: rgb(68, 68, 68);"/>
  <path d="M 25.918 19.033 L 25.918 21.085 C 25.931 21.591 25.738 21.993 25.404 22.327 C 25.07 22.661 24.668 22.854 24.161 22.841 C 23.998 22.841 23.867 22.973 23.867 23.136 L 23.867 25.481 C 23.88 25.704 23.801 25.85 23.652 25.998 C 23.504 26.147 23.359 26.213 23.136 26.213 C 22.913 26.213 22.768 26.147 22.62 25.998 C 22.47 25.85 22.392 25.704 22.405 25.481 L 22.405 23.136 C 22.405 22.973 22.273 22.841 22.11 22.841 C 21.604 22.854 21.201 22.661 20.868 22.327 C 20.534 21.993 20.341 21.591 20.353 21.085 L 20.353 19.033 C 20.341 18.811 20.419 18.665 20.568 18.517 C 20.717 18.368 20.862 18.302 21.085 18.302 C 21.307 18.302 21.453 18.368 21.601 18.517 C 21.75 18.665 21.828 18.811 21.816 19.033 L 21.816 20.059 C 21.828 20.401 21.98 20.77 22.202 20.992 C 22.425 21.215 22.793 21.379 23.136 21.379 C 23.478 21.379 23.846 21.215 24.069 20.992 C 24.292 20.77 24.443 20.401 24.456 20.059 L 24.456 19.033 C 24.443 18.811 24.522 18.665 24.671 18.517 C 24.819 18.368 24.964 18.302 25.187 18.302 C 25.41 18.302 25.555 18.368 25.703 18.517 C 25.852 18.665 25.931 18.811 25.918 19.033 Z" style="fill: rgb(68, 68, 68);"/>
</svg>